# Blender v2.80 (sub 74) OBJ File: 'new space MCI.blend'
# www.blender.org
mtllib new-space.mtl
o Walls_Plane
v -7.000000 0.000000 4.000000
v 7.000000 0.000000 4.000000
v 7.000000 0.000000 -4.000000
v -7.000000 0.000000 -1.168443
v -4.281680 0.000000 -4.000000
v -4.281680 0.000000 -4.000000
v -4.281680 0.000000 -1.168443
v -7.000000 4.000000 4.000000
v 7.000000 4.000000 4.000000
v 7.000000 4.000000 -4.000000
v -7.000000 4.000000 -1.168443
v -4.281680 4.000000 -4.000000
v -4.281680 4.000000 -4.000000
v -4.281680 4.000000 -1.168443
vt 0.809085 0.000000
vt 0.809086 0.571429
vt 0.539391 0.571429
vt 0.539391 0.000000
vt 0.809086 0.571429
vt 0.809086 0.940603
vt 0.539391 0.940603
vt 0.539391 0.571429
vt 0.809086 0.000000
vt 1.000000 0.000000
vt 1.000000 0.285714
vt 0.809086 0.285714
vt 0.269695 0.805834
vt 0.269695 0.000000
vt 0.539391 0.805834
vt 0.269695 0.000000
vt 0.269695 1.000000
vt 0.000000 1.000000
vt 0.000000 0.000000
vt 0.992365 0.571429
vt 0.809086 0.571429
vt 0.809086 0.285714
vt 0.992365 0.285714
vt 0.000000 0.000000
vt 0.000000 0.000000
vt 0.000000 0.000000
vt 0.000000 0.000000
vn -1.0000 0.0000 0.0000
vn 1.0000 0.0000 0.0000
vn 0.0000 0.0000 1.0000
vn 0.0000 0.0000 -1.0000
usemtl Concrete
s off
f 3/1/1 2/2/1 9/3/1 10/4/1
f 1/5/2 4/6/2 11/7/2 8/8/2
f 7/9/2 6/10/2 13/11/2 14/12/2
f 5/13/3 3/14/3 10/4/3 12/15/3
f 2/16/4 1/17/4 8/18/4 9/19/4
f 7/20/4 4/21/4 11/22/4 14/23/4
f 6/24/3 5/25/3 12/26/3 13/27/3
o Pillar_Cube.001
v 0.568568 0.000000 -1.168443
v 0.568568 4.000000 -1.168443
v 0.568568 0.000000 -1.668443
v 0.568568 4.000000 -1.668443
v 1.068568 0.000000 -1.168443
v 1.068568 4.000000 -1.168443
v 1.068568 0.000000 -1.668443
v 1.068568 4.000000 -1.668443
vt 0.375000 0.000000
vt 0.625000 0.000000
vt 0.625000 0.250000
vt 0.375000 0.250000
vt 0.625000 0.500000
vt 0.375000 0.500000
vt 0.625000 0.750000
vt 0.375000 0.750000
vt 0.625000 1.000000
vt 0.375000 1.000000
vt 0.125000 0.500000
vt 0.125000 0.750000
vt 0.875000 0.500000
vt 0.875000 0.750000
vn -1.0000 0.0000 0.0000
vn 0.0000 0.0000 -1.0000
vn 1.0000 0.0000 0.0000
vn 0.0000 0.0000 1.0000
vn 0.0000 -1.0000 0.0000
vn 0.0000 1.0000 0.0000
usemtl Concrete
s off
f 15/28/5 16/29/5 18/30/5 17/31/5
f 17/31/6 18/30/6 22/32/6 21/33/6
f 21/33/7 22/32/7 20/34/7 19/35/7
f 19/35/8 20/34/8 16/36/8 15/37/8
f 17/38/9 21/33/9 19/35/9 15/39/9
f 22/32/10 18/40/10 16/41/10 20/34/10
o Floor_Plane.001
v -7.000000 0.000000 4.000000
v 7.000000 0.000000 4.000000
v 7.000000 0.000000 -4.000000
v -7.000000 0.000000 -1.168443
v -4.281680 0.000000 -4.000000
v -4.281680 0.000000 -4.000000
v -4.281680 0.000000 -1.168443
vt 0.000100 0.000100
vt 0.000100 0.999900
vt 0.999900 0.999900
vt 0.999900 0.194227
vt 0.999846 0.188051
vt 0.646026 0.194227
vt 0.646026 0.000100
vn 0.0000 1.0000 0.0000
usemtl Concrete
s off
f 23/42/11 24/43/11 25/44/11 27/45/11 28/46/11 29/47/11 26/48/11
o Light_Plane.002
v -0.125000 3.950000 -0.937497
v 0.125000 3.950000 -0.937497
v -0.125000 3.950000 -2.937497
v 0.125000 3.950000 -2.937497
v -0.125000 3.950000 -0.937497
v 0.125000 3.950000 -0.937497
v -0.125000 3.950000 -2.937497
v 0.125000 3.950000 -2.937497
v -0.125000 4.000000 -0.937497
v 0.125000 4.000000 -0.937497
v -0.125000 4.000000 -2.937497
v 0.125000 4.000000 -2.937497
vt 0.000000 0.000000
vt 0.000000 1.000000
vt 1.000000 1.000000
vt 1.000000 0.000000
vt 0.000000 1.000000
vt 0.000000 0.000000
vt 0.000000 0.000000
vt 0.000000 1.000000
vt 1.000000 1.000000
vt 1.000000 0.000000
vt 1.000000 0.000000
vt 1.000000 1.000000
vn 0.0000 -1.0000 0.0000
vn -1.0000 0.0000 0.0000
vn 0.0000 0.0000 1.0000
vn 0.0000 1.0000 0.0000
vn 0.0000 0.0000 -1.0000
vn 1.0000 0.0000 0.0000
usemtl LED_Light
s off
f 30/49/12 32/50/12 33/51/12 31/52/12
f 36/53/13 34/54/13 38/55/13 40/56/13
f 31/52/14 33/51/14 37/57/14 35/58/14
f 32/50/14 30/49/14 34/54/14 36/53/14
f 33/51/14 32/50/14 36/53/14 37/57/14
f 30/49/14 31/52/14 35/58/14 34/54/14
f 38/55/15 39/59/15 41/60/15 40/56/15
f 37/57/16 36/53/16 40/56/16 41/60/16
f 34/54/14 35/58/14 39/59/14 38/55/14
f 35/58/17 37/57/17 41/60/17 39/59/17
o Ceiling
v -7.000000 4.000000 4.000000
v 7.000000 4.000000 4.000000
v 7.000000 4.000000 -4.000000
v -7.000000 4.000000 -1.168443
v -4.281680 4.000000 -4.000000
v -4.281680 4.000000 -4.000000
v -4.281680 4.000000 -1.168443
vt 0.000000 1.000000
vt 0.000000 0.000000
vt 0.669560 0.000000
vt 0.669560 0.805834
vt 0.669560 0.805834
vt 0.432573 0.805834
vt 0.432573 1.000000
vn 0.0000 1.0000 0.0000
usemtl Concrete
s off
f 42/61/18 43/62/18 44/63/18 46/64/18 47/65/18 48/66/18 45/67/18
o Light.001_Plane.002
v 4.704090 3.950000 -0.937497
v 4.954090 3.950000 -0.937497
v 4.704090 3.950000 -2.937497
v 4.954090 3.950000 -2.937497
v 4.704090 3.950000 -0.937497
v 4.954090 3.950000 -0.937497
v 4.704090 3.950000 -2.937497
v 4.954090 3.950000 -2.937497
v 4.704090 4.000000 -0.937497
v 4.954090 4.000000 -0.937497
v 4.704090 4.000000 -2.937497
v 4.954090 4.000000 -2.937497
vt 0.000000 0.000000
vt 0.000000 1.000000
vt 1.000000 1.000000
vt 1.000000 0.000000
vt 0.000000 1.000000
vt 0.000000 0.000000
vt 0.000000 0.000000
vt 0.000000 1.000000
vt 1.000000 1.000000
vt 1.000000 0.000000
vt 1.000000 0.000000
vt 1.000000 1.000000
vn 0.0000 -1.0000 0.0000
vn -1.0000 0.0000 0.0000
vn 0.0000 0.0000 1.0000
vn 0.0000 1.0000 0.0000
vn 0.0000 0.0000 -1.0000
vn 1.0000 0.0000 0.0000
usemtl LED_Light
s off
f 49/68/19 51/69/19 52/70/19 50/71/19
f 55/72/20 53/73/20 57/74/20 59/75/20
f 50/71/21 52/70/21 56/76/21 54/77/21
f 51/69/21 49/68/21 53/73/21 55/72/21
f 52/70/21 51/69/21 55/72/21 56/76/21
f 49/68/21 50/71/21 54/77/21 53/73/21
f 57/74/22 58/78/22 60/79/22 59/75/22
f 56/76/23 55/72/23 59/75/23 60/79/23
f 53/73/21 54/77/21 58/78/21 57/74/21
f 54/77/24 56/76/24 60/79/24 58/78/24
o Light.002_Plane.002
v -0.125000 3.950000 2.972578
v 0.125000 3.950000 2.972578
v -0.125000 3.950000 0.972578
v 0.125000 3.950000 0.972578
v -0.125000 3.950000 2.972578
v 0.125000 3.950000 2.972578
v -0.125000 3.950000 0.972578
v 0.125000 3.950000 0.972578
v -0.125000 4.000000 2.972578
v 0.125000 4.000000 2.972578
v -0.125000 4.000000 0.972578
v 0.125000 4.000000 0.972578
vt 0.000000 0.000000
vt 0.000000 1.000000
vt 1.000000 1.000000
vt 1.000000 0.000000
vt 0.000000 1.000000
vt 0.000000 0.000000
vt 0.000000 0.000000
vt 0.000000 1.000000
vt 1.000000 1.000000
vt 1.000000 0.000000
vt 1.000000 0.000000
vt 1.000000 1.000000
vn 0.0000 -1.0000 0.0000
vn -1.0000 0.0000 0.0000
vn 0.0000 0.0000 1.0000
vn 0.0000 1.0000 0.0000
vn 0.0000 0.0000 -1.0000
vn 1.0000 0.0000 0.0000
usemtl LED_Light
s off
f 61/80/25 63/81/25 64/82/25 62/83/25
f 67/84/26 65/85/26 69/86/26 71/87/26
f 62/83/27 64/82/27 68/88/27 66/89/27
f 63/81/27 61/80/27 65/85/27 67/84/27
f 64/82/27 63/81/27 67/84/27 68/88/27
f 61/80/27 62/83/27 66/89/27 65/85/27
f 69/86/28 70/90/28 72/91/28 71/87/28
f 68/88/29 67/84/29 71/87/29 72/91/29
f 65/85/27 66/89/27 70/90/27 69/86/27
f 66/89/30 68/88/30 72/91/30 70/90/30
o Light.003_Plane.002
v 4.704090 3.950000 2.972578
v 4.954090 3.950000 2.972578
v 4.704090 3.950000 0.972578
v 4.954090 3.950000 0.972578
v 4.704090 3.950000 2.972578
v 4.954090 3.950000 2.972578
v 4.704090 3.950000 0.972578
v 4.954090 3.950000 0.972578
v 4.704090 4.000000 2.972578
v 4.954090 4.000000 2.972578
v 4.704090 4.000000 0.972578
v 4.954090 4.000000 0.972578
vt 0.000000 0.000000
vt 0.000000 1.000000
vt 1.000000 1.000000
vt 1.000000 0.000000
vt 0.000000 1.000000
vt 0.000000 0.000000
vt 0.000000 0.000000
vt 0.000000 1.000000
vt 1.000000 1.000000
vt 1.000000 0.000000
vt 1.000000 0.000000
vt 1.000000 1.000000
vn 0.0000 -1.0000 0.0000
vn -1.0000 0.0000 0.0000
vn 0.0000 0.0000 1.0000
vn 0.0000 1.0000 0.0000
vn 0.0000 0.0000 -1.0000
vn 1.0000 0.0000 0.0000
usemtl LED_Light
s off
f 73/92/31 75/93/31 76/94/31 74/95/31
f 79/96/32 77/97/32 81/98/32 83/99/32
f 74/95/33 76/94/33 80/100/33 78/101/33
f 75/93/33 73/92/33 77/97/33 79/96/33
f 76/94/33 75/93/33 79/96/33 80/100/33
f 73/92/33 74/95/33 78/101/33 77/97/33
f 81/98/34 82/102/34 84/103/34 83/99/34
f 80/100/35 79/96/35 83/99/35 84/103/35
f 77/97/33 78/101/33 82/102/33 81/98/33
f 78/101/36 80/100/36 84/103/36 82/102/36
