{
    "asset" : {
        "generator" : "Khronos glTF Blender I/O v0.9.25",
        "version" : "2.0"
    },
    "scene" : 0,
    "scenes" : [
        {
            "name" : "Scene",
            "nodes" : [
                0,
                1,
                2,
                3,
                4,
                5,
                6,
                7,
                8,
                9
            ]
        }
    ],
    "nodes" : [
        {
            "name" : "Camera",
            "rotation" : [
                0.6332022547721863,
                0.3135421872138977,
                -0.3127731382846832,
                0.6347591280937195
            ],
            "translation" : [
                7.006661415100098,
                2.119314670562744,
                3.8250536918640137
            ]
        },
        {
            "mesh" : 0,
            "name" : "Walls"
        },
        {
            "mesh" : 1,
            "name" : "Pillar",
            "scale" : [
                0.25,
                2,
                0.25
            ],
            "translation" : [
                0.8185677528381348,
                2,
                -1.418442964553833
            ]
        },
        {
            "mesh" : 2,
            "name" : "Floor",
            "scale" : [
                7,
                1,
                4
            ]
        },
        {
            "mesh" : 3,
            "name" : "Light",
            "scale" : [
                0.125,
                1,
                1
            ],
            "translation" : [
                0,
                3.950000047683716,
                -1.9374966621398926
            ]
        },
        {
            "mesh" : 4,
            "name" : "Ceiling",
            "scale" : [
                7,
                1,
                4
            ]
        },
        {
            "name" : "IrradianceVolume",
            "scale" : [
                7.520224571228027,
                2.203695297241211,
                3.9750163555145264
            ],
            "translation" : [
                0,
                2.0267763137817383,
                0
            ]
        },
        {
            "mesh" : 3,
            "name" : "Light.001",
            "scale" : [
                0.125,
                1,
                1
            ],
            "translation" : [
                4.829089641571045,
                3.950000047683716,
                -1.9374966621398926
            ]
        },
        {
            "mesh" : 3,
            "name" : "Light.002",
            "scale" : [
                0.125,
                1,
                1
            ],
            "translation" : [
                0,
                3.950000047683716,
                1.9725782871246338
            ]
        },
        {
            "mesh" : 3,
            "name" : "Light.003",
            "scale" : [
                0.125,
                1,
                1
            ],
            "translation" : [
                4.829089641571045,
                3.950000047683716,
                1.9725782871246338
            ]
        }
    ],
    "materials" : [
        {
            "doubleSided" : true,
            "name" : "Concrete",
            "normalTexture" : {
                "index" : 0,
                "texCoord" : 0
            },
            "pbrMetallicRoughness" : {
                "baseColorTexture" : {
                    "index" : 1,
                    "texCoord" : 0
                },
                "metallicFactor" : 0,
                "roughnessFactor" : 0.8144654035568237
            }
        },
        {
            "doubleSided" : true,
            "emissiveFactor" : [
                1,
                1,
                1
            ],
            "name" : "LED Light",
            "pbrMetallicRoughness" : {}
        }
    ],
    "meshes" : [
        {
            "name" : "Plane",
            "primitives" : [
                {
                    "attributes" : {
                        "POSITION" : 0,
                        "NORMAL" : 1,
                        "TEXCOORD_0" : 2
                    },
                    "indices" : 3,
                    "material" : 0
                }
            ]
        },
        {
            "name" : "Cube.001",
            "primitives" : [
                {
                    "attributes" : {
                        "POSITION" : 4,
                        "NORMAL" : 5,
                        "TEXCOORD_0" : 6
                    },
                    "indices" : 7,
                    "material" : 0
                }
            ]
        },
        {
            "name" : "Plane.001",
            "primitives" : [
                {
                    "attributes" : {
                        "POSITION" : 8,
                        "NORMAL" : 9,
                        "TEXCOORD_0" : 10
                    },
                    "indices" : 11,
                    "material" : 0
                }
            ]
        },
        {
            "name" : "Plane.002",
            "primitives" : [
                {
                    "attributes" : {
                        "POSITION" : 12,
                        "NORMAL" : 13,
                        "TEXCOORD_0" : 14
                    },
                    "indices" : 15,
                    "material" : 1
                }
            ]
        },
        {
            "name" : "Ceiling",
            "primitives" : [
                {
                    "attributes" : {
                        "POSITION" : 16,
                        "NORMAL" : 17,
                        "TEXCOORD_0" : 18
                    },
                    "indices" : 11,
                    "material" : 0
                }
            ]
        }
    ],
    "textures" : [
        {
            "source" : 0
        },
        {
            "source" : 0
        }
    ],
    "images" : [
        {
            "bufferView" : 4,
            "mimeType" : "image/jpeg",
            "name" : "79b141ec6e83cd13a8f2f1c3469041c0"
        }
    ],
    "accessors" : [
        {
            "bufferView" : 0,
            "componentType" : 5126,
            "count" : 25,
            "max" : [
                7,
                4,
                4
            ],
            "min" : [
                -7,
                0,
                -4
            ],
            "type" : "VEC3"
        },
        {
            "bufferView" : 1,
            "componentType" : 5126,
            "count" : 25,
            "type" : "VEC3"
        },
        {
            "bufferView" : 2,
            "componentType" : 5126,
            "count" : 25,
            "type" : "VEC2"
        },
        {
            "bufferView" : 3,
            "componentType" : 5123,
            "count" : 39,
            "type" : "SCALAR"
        },
        {
            "bufferView" : 5,
            "componentType" : 5126,
            "count" : 24,
            "max" : [
                1,
                1,
                1
            ],
            "min" : [
                -1,
                -1,
                -1
            ],
            "type" : "VEC3"
        },
        {
            "bufferView" : 6,
            "componentType" : 5126,
            "count" : 24,
            "type" : "VEC3"
        },
        {
            "bufferView" : 7,
            "componentType" : 5126,
            "count" : 24,
            "type" : "VEC2"
        },
        {
            "bufferView" : 8,
            "componentType" : 5123,
            "count" : 36,
            "type" : "SCALAR"
        },
        {
            "bufferView" : 9,
            "componentType" : 5126,
            "count" : 6,
            "max" : [
                1,
                0,
                1
            ],
            "min" : [
                -1,
                0,
                -1
            ],
            "type" : "VEC3"
        },
        {
            "bufferView" : 10,
            "componentType" : 5126,
            "count" : 6,
            "type" : "VEC3"
        },
        {
            "bufferView" : 11,
            "componentType" : 5126,
            "count" : 6,
            "type" : "VEC2"
        },
        {
            "bufferView" : 12,
            "componentType" : 5123,
            "count" : 12,
            "type" : "SCALAR"
        },
        {
            "bufferView" : 13,
            "componentType" : 5126,
            "count" : 28,
            "max" : [
                1,
                0.05000000074505806,
                1
            ],
            "min" : [
                -1,
                0,
                -1
            ],
            "type" : "VEC3"
        },
        {
            "bufferView" : 14,
            "componentType" : 5126,
            "count" : 28,
            "type" : "VEC3"
        },
        {
            "bufferView" : 15,
            "componentType" : 5126,
            "count" : 28,
            "type" : "VEC2"
        },
        {
            "bufferView" : 16,
            "componentType" : 5123,
            "count" : 48,
            "type" : "SCALAR"
        },
        {
            "bufferView" : 17,
            "componentType" : 5126,
            "count" : 6,
            "max" : [
                1,
                4,
                1
            ],
            "min" : [
                -1,
                4,
                -1
            ],
            "type" : "VEC3"
        },
        {
            "bufferView" : 18,
            "componentType" : 5126,
            "count" : 6,
            "type" : "VEC3"
        },
        {
            "bufferView" : 19,
            "componentType" : 5126,
            "count" : 6,
            "type" : "VEC2"
        }
    ],
    "bufferViews" : [
        {
            "buffer" : 0,
            "byteLength" : 300,
            "byteOffset" : 0
        },
        {
            "buffer" : 0,
            "byteLength" : 300,
            "byteOffset" : 300
        },
        {
            "buffer" : 0,
            "byteLength" : 200,
            "byteOffset" : 600
        },
        {
            "buffer" : 0,
            "byteLength" : 78,
            "byteOffset" : 800
        },
        {
            "buffer" : 0,
            "byteLength" : 171935,
            "byteOffset" : 880
        },
        {
            "buffer" : 0,
            "byteLength" : 288,
            "byteOffset" : 172816
        },
        {
            "buffer" : 0,
            "byteLength" : 288,
            "byteOffset" : 173104
        },
        {
            "buffer" : 0,
            "byteLength" : 192,
            "byteOffset" : 173392
        },
        {
            "buffer" : 0,
            "byteLength" : 72,
            "byteOffset" : 173584
        },
        {
            "buffer" : 0,
            "byteLength" : 72,
            "byteOffset" : 173656
        },
        {
            "buffer" : 0,
            "byteLength" : 72,
            "byteOffset" : 173728
        },
        {
            "buffer" : 0,
            "byteLength" : 48,
            "byteOffset" : 173800
        },
        {
            "buffer" : 0,
            "byteLength" : 24,
            "byteOffset" : 173848
        },
        {
            "buffer" : 0,
            "byteLength" : 336,
            "byteOffset" : 173872
        },
        {
            "buffer" : 0,
            "byteLength" : 336,
            "byteOffset" : 174208
        },
        {
            "buffer" : 0,
            "byteLength" : 224,
            "byteOffset" : 174544
        },
        {
            "buffer" : 0,
            "byteLength" : 96,
            "byteOffset" : 174768
        },
        {
            "buffer" : 0,
            "byteLength" : 72,
            "byteOffset" : 174864
        },
        {
            "buffer" : 0,
            "byteLength" : 72,
            "byteOffset" : 174936
        },
        {
            "buffer" : 0,
            "byteLength" : 48,
            "byteOffset" : 175008
        }
    ],
    "buffers" : [
        {
            "byteLength" : 175056,
            "uri" : "data:application/octet-stream;base64,"
        }
    ]
}
